<svg xmlns="http://www.w3.org/2000/svg" viewBox="0 0 32 32">
  <path d="M9.4 8.8Q9.4 6.6 11.6 6.6L24.2 6.6Q26.4 6.6 26.4 8.8L26.4 13.9A1.5 1.5 0 0 1 23.4 13.9L23.4 12.7L21.8 12.7L21.8 14.2A1.5 1.5 0 0 1 18.8 14.2L18.8 12.7L17.2 12.7L17.2 14.5A1.5 1.5 0 0 1 14.2 14.5L14.2 12.7L13.1 12.7L13.1 21.9A1.8 1.8 0 0 1 9.5 21.9L9.5 16.4C7.6 15.6 6.6 13.4 7.4 11.4C7.9 10.2 9 10 9.4 10.9Z" fill="none" stroke="#dce2eb" stroke-width="2.2" stroke-linecap="round" stroke-linejoin="round"/>
  <path d="M14.6 26.8C10.8 28.3 6.4 27.6 4.2 25.4" fill="none" stroke="#74c0ff" stroke-width="2.2" stroke-linecap="round"/>
</svg>
